<svg xmlns="http://www.w3.org/2000/svg" viewBox="0 0 32 32" shape-rendering="geometricPrecision">
  
  <rect x="0" y="0" width="32" height="32" rx="7.5" ry="7.5" fill="#2A1A4E"></rect>

  
  <g transform="rotate(-4 16 17)">
    
    <rect x="6.2" y="9.5" width="19.6" height="2.2" rx="1.1" fill="#1A0F36"></rect>
    
    <rect x="5.2" y="5.5" width="21.6" height="5.2" rx="2.2" fill="#D4E842"></rect>
    
    <rect x="7.4" y="6.8" width="4.6" height="1.1" rx="0.55" fill="#FDF4E3" opacity="0.55"></rect>

    
    <rect x="6.6" y="11.4" width="18.8" height="15.4" rx="3.4" fill="#FDF4E3"></rect>

    
    <path d="M7.6 15.2 Q11 14.2 16 14.6 T24.4 15.2" fill="none" stroke="#C4A8E8" stroke-width="0.9" stroke-linecap="round"></path>

    
    <circle cx="10.4" cy="21.6" r="1.3" fill="#A8D8A8"></circle>
    <circle cx="21.4" cy="22.4" r="1.1" fill="#F4845A"></circle>
    <circle cx="22.2" cy="18.6" r="0.85" fill="#E8A2C8"></circle>

    
    <circle cx="13.0" cy="19.6" r="1.05" fill="#2A1A4E"></circle>
    <circle cx="18.4" cy="19.6" r="1.05" fill="#2A1A4E"></circle>
    
    <circle cx="11.4" cy="22.0" r="0.9" fill="#F4845A" opacity="0.55"></circle>
    <circle cx="20.0" cy="22.0" r="0.9" fill="#F4845A" opacity="0.55"></circle>
    
    <path d="M13.4 22.4 Q15.7 24.2 18.0 22.4" fill="none" stroke="#2A1A4E" stroke-width="1.1" stroke-linecap="round"></path>
  </g>

  
  <g fill="#D4E842">
    <circle cx="3.6" cy="14.4" r="0.7"></circle>
    <circle cx="28.6" cy="6.6" r="0.7"></circle>
  </g>
  <circle cx="29" cy="24" r="0.7" fill="#F4845A"></circle>
</svg>